<svg width="20" height="22" viewBox="0 0 20 22" fill="none" xmlns="http://www.w3.org/2000/svg">
<path d="M10 22C4.477 22 0 17.0753 0 11C0 4.9247 4.477 0 10 0C15.523 0 20 4.9247 20 11C20 17.0753 15.523 22 10 22ZM10 19.8C12.1217 19.8 14.1566 18.8729 15.6569 17.2225C17.1571 15.5722 18 13.3339 18 11C18 8.66609 17.1571 6.42778 15.6569 4.77746C14.1566 3.12714 12.1217 2.2 10 2.2C7.87827 2.2 5.84344 3.12714 4.34315 4.77746C2.84285 6.42778 2 8.66609 2 11C2 13.3339 2.84285 15.5722 4.34315 17.2225C5.84344 18.8729 7.87827 19.8 10 19.8V19.8ZM14.5 6.05L12 13.2L5.5 15.95L8 8.8L14.5 6.05ZM10 12.1C10.2652 12.1 10.5196 11.9841 10.7071 11.7778C10.8946 11.5715 11 11.2917 11 11C11 10.7083 10.8946 10.4285 10.7071 10.2222C10.5196 10.0159 10.2652 9.9 10 9.9C9.73478 9.9 9.48043 10.0159 9.29289 10.2222C9.10536 10.4285 9 10.7083 9 11C9 11.2917 9.10536 11.5715 9.29289 11.7778C9.48043 11.9841 9.73478 12.1 10 12.1V12.1Z" fill="white"/>
</svg>
