<svg width="16" height="19" viewBox="0 0 16 19" fill="none" xmlns="http://www.w3.org/2000/svg">
<path d="M8 18.4852C3.5816 18.4852 0 14.4734 0 9.52444C0 4.57543 3.5816 0.563721 8 0.563721C12.4184 0.563721 16 4.57543 16 9.52444C16 14.4734 12.4184 18.4852 8 18.4852ZM8 16.693C9.69739 16.693 11.3253 15.9378 12.5255 14.5934C13.7257 13.249 14.4 11.4257 14.4 9.52444C14.4 7.62321 13.7257 5.79986 12.5255 4.45549C11.3253 3.11112 9.69739 2.35586 8 2.35586C6.30261 2.35586 4.67475 3.11112 3.47452 4.45549C2.27428 5.79986 1.6 7.62321 1.6 9.52444C1.6 11.4257 2.27428 13.249 3.47452 14.5934C4.67475 15.9378 6.30261 16.693 8 16.693V16.693ZM11.6 5.49211L9.6 11.3166L4.4 13.5568L6.4 7.73229L11.6 5.49211ZM8 10.4205C8.21217 10.4205 8.41566 10.3261 8.56569 10.1581C8.71571 9.99001 8.8 9.76209 8.8 9.52444C8.8 9.28678 8.71571 9.05886 8.56569 8.89082C8.41566 8.72277 8.21217 8.62837 8 8.62837C7.78783 8.62837 7.58434 8.72277 7.43431 8.89082C7.28429 9.05886 7.2 9.28678 7.2 9.52444C7.2 9.76209 7.28429 9.99001 7.43431 10.1581C7.58434 10.3261 7.78783 10.4205 8 10.4205V10.4205Z" fill="white"/>
</svg>
