<svg width="16" height="19" viewBox="0 0 16 19" fill="none" xmlns="http://www.w3.org/2000/svg">
<path d="M16 17.6802C16 17.9339 15.9064 18.1772 15.7397 18.3567C15.573 18.5361 15.3469 18.6369 15.1111 18.6369H0.888889C0.653141 18.6369 0.427049 18.5361 0.26035 18.3567C0.0936507 18.1772 2.13965e-07 17.9339 2.13965e-07 17.6802V7.62535C-9.37632e-05 7.47956 0.0307708 7.33568 0.0902365 7.20469C0.149702 7.0737 0.236196 6.95907 0.343111 6.86956L7.45422 0.917023C7.61026 0.786382 7.80231 0.715454 8 0.715454C8.19769 0.715454 8.38974 0.786382 8.54578 0.917023L15.6569 6.86956C15.7638 6.95907 15.8503 7.0737 15.9098 7.20469C15.9692 7.33568 16.0001 7.47956 16 7.62535V17.6802V17.6802Z" fill="white"/>
</svg>
