<svg width="18" height="21" viewBox="0 0 18 21" fill="none" xmlns="http://www.w3.org/2000/svg">
<path d="M16.2 15H18V17H0V15H1.8V8C1.8 5.87827 2.55857 3.84344 3.90883 2.34315C5.25909 0.842855 7.09044 0 9 0C10.9096 0 12.7409 0.842855 14.0912 2.34315C15.4414 3.84344 16.2 5.87827 16.2 8V15ZM14.4 15V8C14.4 6.4087 13.8311 4.88258 12.8184 3.75736C11.8057 2.63214 10.4322 2 9 2C7.56783 2 6.19432 2.63214 5.18162 3.75736C4.16893 4.88258 3.6 6.4087 3.6 8V15H14.4ZM6.3 19H11.7V21H6.3V19Z" fill="#D6D6D6"/>
</svg>
