<svg width="18" height="18" viewBox="0 0 18 18" fill="none" xmlns="http://www.w3.org/2000/svg">
<path d="M3.6 12.6H1.8C1.32261 12.6 0.864773 12.7896 0.527208 13.1272C0.189642 13.4648 0 13.9226 0 14.4V16.2C0 16.6774 0.189642 17.1352 0.527208 17.4728C0.864773 17.8104 1.32261 18 1.8 18H3.6C4.07739 18 4.53523 17.8104 4.87279 17.4728C5.21036 17.1352 5.4 16.6774 5.4 16.2V14.4C5.4 13.9226 5.21036 13.4648 4.87279 13.1272C4.53523 12.7896 4.07739 12.6 3.6 12.6ZM3.6 16.2H1.8V14.4H3.6V16.2ZM3.6 6.3H1.8C1.32261 6.3 0.864773 6.48964 0.527208 6.82721C0.189642 7.16477 0 7.62261 0 8.1V9.9C0 10.3774 0.189642 10.8352 0.527208 11.1728C0.864773 11.5104 1.32261 11.7 1.8 11.7H3.6C4.07739 11.7 4.53523 11.5104 4.87279 11.1728C5.21036 10.8352 5.4 10.3774 5.4 9.9V8.1C5.4 7.62261 5.21036 7.16477 4.87279 6.82721C4.53523 6.48964 4.07739 6.3 3.6 6.3ZM3.6 9.9H1.8V8.1H3.6V9.9ZM3.6 0H1.8C1.32261 0 0.864773 0.189642 0.527208 0.527208C0.189642 0.864773 0 1.32261 0 1.8V3.6C0 4.07739 0.189642 4.53523 0.527208 4.87279C0.864773 5.21036 1.32261 5.4 1.8 5.4H3.6C4.07739 5.4 4.53523 5.21036 4.87279 4.87279C5.21036 4.53523 5.4 4.07739 5.4 3.6V1.8C5.4 1.32261 5.21036 0.864773 4.87279 0.527208C4.53523 0.189642 4.07739 0 3.6 0ZM3.6 3.6H1.8V1.8H3.6V3.6ZM9.9 12.6H8.1C7.62261 12.6 7.16477 12.7896 6.82721 13.1272C6.48964 13.4648 6.3 13.9226 6.3 14.4V16.2C6.3 16.6774 6.48964 17.1352 6.82721 17.4728C7.16477 17.8104 7.62261 18 8.1 18H9.9C10.3774 18 10.8352 17.8104 11.1728 17.4728C11.5104 17.1352 11.7 16.6774 11.7 16.2V14.4C11.7 13.9226 11.5104 13.4648 11.1728 13.1272C10.8352 12.7896 10.3774 12.6 9.9 12.6ZM9.9 16.2H8.1V14.4H9.9V16.2ZM9.9 6.3H8.1C7.62261 6.3 7.16477 6.48964 6.82721 6.82721C6.48964 7.16477 6.3 7.62261 6.3 8.1V9.9C6.3 10.3774 6.48964 10.8352 6.82721 11.1728C7.16477 11.5104 7.62261 11.7 8.1 11.7H9.9C10.3774 11.7 10.8352 11.5104 11.1728 11.1728C11.5104 10.8352 11.7 10.3774 11.7 9.9V8.1C11.7 7.62261 11.5104 7.16477 11.1728 6.82721C10.8352 6.48964 10.3774 6.3 9.9 6.3ZM9.9 9.9H8.1V8.1H9.9V9.9ZM9.9 0H8.1C7.62261 0 7.16477 0.189642 6.82721 0.527208C6.48964 0.864773 6.3 1.32261 6.3 1.8V3.6C6.3 4.07739 6.48964 4.53523 6.82721 4.87279C7.16477 5.21036 7.62261 5.4 8.1 5.4H9.9C10.3774 5.4 10.8352 5.21036 11.1728 4.87279C11.5104 4.53523 11.7 4.07739 11.7 3.6V1.8C11.7 1.32261 11.5104 0.864773 11.1728 0.527208C10.8352 0.189642 10.3774 0 9.9 0ZM9.9 3.6H8.1V1.8H9.9V3.6ZM16.2 12.6H14.4C13.9226 12.6 13.4648 12.7896 13.1272 13.1272C12.7896 13.4648 12.6 13.9226 12.6 14.4V16.2C12.6 16.6774 12.7896 17.1352 13.1272 17.4728C13.4648 17.8104 13.9226 18 14.4 18H16.2C16.6774 18 17.1352 17.8104 17.4728 17.4728C17.8104 17.1352 18 16.6774 18 16.2V14.4C18 13.9226 17.8104 13.4648 17.4728 13.1272C17.1352 12.7896 16.6774 12.6 16.2 12.6ZM16.2 16.2H14.4V14.4H16.2V16.2ZM16.2 6.3H14.4C13.9226 6.3 13.4648 6.48964 13.1272 6.82721C12.7896 7.16477 12.6 7.62261 12.6 8.1V9.9C12.6 10.3774 12.7896 10.8352 13.1272 11.1728C13.4648 11.5104 13.9226 11.7 14.4 11.7H16.2C16.6774 11.7 17.1352 11.5104 17.4728 11.1728C17.8104 10.8352 18 10.3774 18 9.9V8.1C18 7.62261 17.8104 7.16477 17.4728 6.82721C17.1352 6.48964 16.6774 6.3 16.2 6.3ZM16.2 9.9H14.4V8.1H16.2V9.9ZM16.2 0H14.4C13.9226 0 13.4648 0.189642 13.1272 0.527208C12.7896 0.864773 12.6 1.32261 12.6 1.8V3.6C12.6 4.07739 12.7896 4.53523 13.1272 4.87279C13.4648 5.21036 13.9226 5.4 14.4 5.4H16.2C16.6774 5.4 17.1352 5.21036 17.4728 4.87279C17.8104 4.53523 18 4.07739 18 3.6V1.8C18 1.32261 17.8104 0.864773 17.4728 0.527208C17.1352 0.189642 16.6774 0 16.2 0ZM16.2 3.6H14.4V1.8H16.2V3.6Z" fill="#D5D5D5"/>
</svg>
