<svg width="14" height="20" viewBox="0 0 14 20" fill="none" xmlns="http://www.w3.org/2000/svg">
<path d="M10.1319 9.74794L2.41408 4.40193V15.094L10.1319 9.74794ZM13.7313 10.2696L0.937871 19.1307C0.846988 19.1936 0.741401 19.2296 0.632358 19.235C0.523316 19.2405 0.414899 19.215 0.318658 19.1615C0.222416 19.108 0.141952 19.0283 0.085837 18.931C0.0297216 18.8337 5.63935e-05 18.7225 0 18.609V0.886833C5.63935e-05 0.773414 0.0297216 0.662135 0.085837 0.564847C0.141952 0.46756 0.222416 0.387907 0.318658 0.334373C0.414899 0.280839 0.523316 0.255429 0.632358 0.260848C0.741401 0.266268 0.846988 0.302314 0.937871 0.365149L13.7313 9.22626C13.814 9.28352 13.8817 9.36109 13.9286 9.4521C13.9755 9.54311 14 9.64472 14 9.74794C14 9.85116 13.9755 9.95278 13.9286 10.0438C13.8817 10.1348 13.814 10.2124 13.7313 10.2696Z" fill="white"/>
</svg>
