<svg width="12" height="20" viewBox="0 0 12 20" fill="none" xmlns="http://www.w3.org/2000/svg">
<path d="M6.00034 0C6.44079 0 6.87693 0.117572 7.28386 0.346002C7.69079 0.574433 8.06053 0.909248 8.37198 1.33133C8.68343 1.75342 8.93049 2.2545 9.09904 2.80598C9.2676 3.35746 9.35435 3.94854 9.35435 4.54545V8.18182C9.35435 9.38735 9.00098 10.5435 8.37198 11.3959C7.74298 12.2484 6.88988 12.7273 6.00034 12.7273C5.1108 12.7273 4.25769 12.2484 3.62869 11.3959C2.99969 10.5435 2.64632 9.38735 2.64632 8.18182V4.54545C2.64632 3.33993 2.99969 2.18377 3.62869 1.33133C4.25769 0.478895 5.1108 0 6.00034 0ZM0 9.09091H1.35167C1.5142 10.6043 2.07337 11.9879 2.92687 12.9884C3.78038 13.989 4.87116 14.5396 5.99966 14.5396C7.12817 14.5396 8.21895 13.989 9.07246 12.9884C9.92596 11.9879 10.4851 10.6043 10.6477 9.09091H12C11.8475 10.9352 11.237 12.6545 10.2688 13.9669C9.30056 15.2792 8.03199 16.1067 6.67114 16.3136V20H5.32953V16.3136C3.96856 16.1069 2.69984 15.2795 1.73146 13.9671C0.763084 12.6547 0.152549 10.9353 0 9.09091Z" fill="white"/>
</svg>
