<svg width="16" height="17" viewBox="0 0 16 17" fill="none" xmlns="http://www.w3.org/2000/svg">
<path d="M12.6266 12.2324L16 15.8158L14.8855 17L11.5128 13.4157C10.2579 14.4846 8.69706 15.0659 7.08871 15.0635C3.17574 15.0635 0 11.6893 0 7.53175C0 3.37422 3.17574 0 7.08871 0C11.0017 0 14.1774 3.37422 14.1774 7.53175C14.1797 9.24062 13.6325 10.8991 12.6266 12.2324ZM11.0466 11.6115C12.0462 10.5193 12.6044 9.0552 12.6021 7.53175C12.6021 4.29477 10.1345 1.67372 7.08871 1.67372C4.04214 1.67372 1.57527 4.29477 1.57527 7.53175C1.57527 10.7679 4.04214 13.3898 7.08871 13.3898C8.52254 13.3922 9.90047 12.7991 10.9284 11.737L11.0466 11.6115Z" fill="#ADADAD"/>
</svg>
