<svg width="16" height="19" viewBox="0 0 16 19" fill="none" xmlns="http://www.w3.org/2000/svg">
<path d="M0.807348 6.38568H15.1927C15.3043 6.38561 15.4147 6.41414 15.517 6.46944C15.6193 6.52475 15.7111 6.60563 15.7867 6.70698C15.8623 6.80832 15.9201 6.92792 15.9563 7.05822C15.9926 7.18852 16.0065 7.32667 15.9972 7.46395L15.3242 17.4203C15.3074 17.6691 15.2155 17.901 15.0666 18.0701C14.9177 18.2392 14.7228 18.3332 14.5204 18.3333H1.47957C1.27721 18.3332 1.08228 18.2392 0.933416 18.0701C0.784548 17.901 0.692605 17.6691 0.67581 17.4203L0.00278454 7.46395C-0.00648247 7.32667 0.00743996 7.18852 0.0436713 7.05822C0.0799026 6.92792 0.137654 6.80832 0.213274 6.70698C0.288894 6.60563 0.380737 6.52475 0.482994 6.46944C0.585251 6.41414 0.695697 6.38561 0.807348 6.38568V6.38568ZM2.22199 16.342H13.778L14.3155 8.37695H1.68454L2.22199 16.342V16.342ZM9.14108 2.40314H14.4559C14.6699 2.40314 14.8752 2.50803 15.0265 2.69475C15.1778 2.88147 15.2629 3.13471 15.2629 3.39877V4.39441H0.73714V1.4075C0.73714 1.14344 0.822162 0.890198 0.973501 0.70348C1.12484 0.516762 1.3301 0.411865 1.54412 0.411865H7.52711L9.14108 2.40314Z" fill="white"/>
</svg>
