<svg width="22" height="15" viewBox="0 0 22 15" fill="none" xmlns="http://www.w3.org/2000/svg">
<path d="M15 0C15.552 0 16 0.42 16 0.9375V4.875L21.213 1.45313C21.439 1.305 21.751 1.35656 21.91 1.56937C21.968 1.64812 22 1.74188 22 1.8375V13.1625C22 13.4213 21.776 13.6313 21.5 13.6313C21.397 13.6313 21.297 13.6013 21.213 13.5469L16 10.125V14.0625C16 14.58 15.552 15 15 15H1C0.448 15 0 14.58 0 14.0625V0.9375C0 0.42 0.448 0 1 0H15ZM14 1.875H2V13.125H14V1.875ZM7 3.75H9V6.5625H12V8.4375H8.999L9 11.25H7L6.999 8.4375H4V6.5625H7V3.75ZM20 4.53844L16 7.16344V7.83656L20 10.4616V4.5375V4.53844Z" fill="#C8C8C8"/>
</svg>
